<svg xmlns="http://www.w3.org/2000/svg" xmlns:xlink="http://www.w3.org/1999/xlink" viewBox="0 0 1366 768"><defs><style>.cls-1{fill:none;}.cls-1,.cls-2,.cls-3,.cls-4,.cls-7{stroke:#000;stroke-miterlimit:10;}.cls-1,.cls-4{stroke-width:10px;}.cls-2{fill:#3a75d9;}.cls-2,.cls-3{stroke-width:5px;}.cls-4{fill:#ee1a54;}.cls-5{clip-path:url(#clip-path);}.cls-6{fill:#31ac62;}.cls-7{fill:#fefefe;}</style><clipPath id="clip-path"><circle class="cls-1" cx="677.33" cy="388.35" r="373"/></clipPath></defs><title>Artboard 1</title><g id="sky"><circle class="cls-2" cx="677.33" cy="388.36" r="373"/></g><g id="pole"><g id="mast"><rect id="pole1" class="cls-3" x="484.18" y="261.04" width="18" height="292.3"/></g><ellipse id="ball" class="cls-4" cx="493.18" cy="246.75" rx="21.96" ry="22.38"/></g><g id="Layer_9" data-name="Layer 9"><g class="cls-5"><path class="cls-6" d="M503.55,535.72a15.84,15.84,0,0,0-21.66,0L59.21,940.62c-6,5.71-4.08,10.38,4.17,10.38H922.06c8.25,0,10.12-4.67,4.17-10.38Z"/><path class="cls-1" d="M503.55,535.72a15.84,15.84,0,0,0-21.66,0L59.21,940.62c-6,5.71-4.08,10.38,4.17,10.38H922.06c8.25,0,10.12-4.67,4.17-10.38Z"/></g><circle class="cls-1" cx="677.33" cy="388.35" r="373"/></g><g id="Layer_11" data-name="Layer 11"><g id="reel"><path d="M909.13,299.83l-.29.05c-42.45,7-83.66-3.67-124.81-18.07-34.41-12.08-68.76-26.89-103.72-37.79-54.17-16.94-107.56-19.33-159.61,13-5.25,3.25-10.36,7-15.57,10.66a5.37,5.37,0,0,0-2.58,5.05c.06,44.58.05,89.18.05,134.61a175.62,175.62,0,0,1,50.28-28.88c29.11-10.64,58.61-11.86,88.4-7,43.75,7.08,86.17,25.89,128.62,41.31,35.29,12.81,70.56,23.61,106.51,24.85a154.08,154.08,0,0,0,33.12-2.39l.18-135.31ZM512.4,269.28a2.62,2.62,0,0,1,1.73-.19c2,.63,1.73,5.12,1.21,7a10.53,10.53,0,0,1-5,6.33c-4.3,2.46-3.06-3.55-2.87-5.92a11.82,11.82,0,0,1,.44-2.66A8.65,8.65,0,0,1,512.4,269.28ZM514.82,389a7.19,7.19,0,0,1-2.78,4c-.93.64-3.44,2-4.12.93a1.8,1.8,0,0,1-.19-.85,55.77,55.77,0,0,1,.29-6.42c.2-3,1.61-5,3.9-5.87,2.07-.8,3.39-.79,3.56,1.29A19.93,19.93,0,0,1,514.82,389Zm9.48-121.56c-.26-5.26,1.83-8.43,5.52-9,3.33-.5,1.75,2.66,2.17,4.23.09,5.22-2.21,8.76-6,9.09C523.21,272,524.38,269,524.3,267.43Zm8,107c0,2,0,4.27-1.5,6s-6.36,3.55-6.65.45a21.92,21.92,0,0,1,1.23-8.38c.9-2.17,4.46-4.06,6.29-2.68C532.75,370.68,532.28,373.09,532.26,374.42Zm9.28-116.3c-.1-4.65,2.13-7.83,5.25-8.07,2.86-.22,2.65,2,2.43,4.07-.18,5.89-2,8.84-5.54,9S541.58,260,541.54,258.12Zm6.06,114.2a4.87,4.87,0,0,1-4.84,1.8c-1.66-.28-1.23-2.81-1.21-4.14a12.25,12.25,0,0,1,1.08-5.78c1.43-2.69,6.3-4,6.56-1.89C549.57,365.48,549.87,369.41,547.6,372.32Zm48.94-133.49c2.72-.07,4,1.5,3.84,4.55-.16,3.51-.17,7-4.59,7.1-3.77.13-3.18-2.65-3.15-5.08C592.25,241.76,592.71,238.93,596.54,238.83ZM558.3,251.64c.06-3.71.92-7,5.11-7.19,2.33-.11,3.17.88,2.62,3.48-.19,6.35-1.58,8.69-5,8.86S558.26,253.86,558.3,251.64Zm3,116.36c-3,.21-2.52-2.2-2.47-3.71-.13-6.28,1.3-8.74,4.9-9.05,2.23-.18,2.91.93,2.89,3.5C566.54,364.93,565,367.76,561.29,368Zm18.26-127.15c2-.22,3.78-.15,3.58,3.16-.23,3.69.73,7.94-4.19,8.73-3.94.65-3.41-3.4-3.53-6C575.26,243.74,576.29,241.22,579.55,240.85Zm-.91,122.66c-2.9.2-3.19-1.75-3.14-4.4.11-5.46,1.35-7.37,4.94-7.55s2.87,3.51,2.88,6c0,1.41,0,3.11-.86,4.29A5.25,5.25,0,0,1,578.64,363.51ZM600.38,356c.32,3.66-1.11,5.47-4.43,5.42-3.85,0-3.33-3.1-3.34-6.45-.56-3.91,1.75-5.42,5-5.3C601.68,349.83,600.16,353.55,600.38,356ZM613.5,238.51a3.15,3.15,0,0,1,3.11,1.53,6.75,6.75,0,0,1,.44,3.32c-.06,1.19.16,2.41,0,3.59a3.41,3.41,0,0,1-2.78,3.22,6,6,0,0,1-1.34.11c-3.08-.05-3.61-2.05-3.69-5.21C609.17,241.29,609.62,238.57,613.5,238.51Zm.1,122.58c-3.51.05-4.16-2.21-3.69-5.38-.44-3.47-.23-6.19,3.65-6,2.5.15,4.3.86,4.06,4.32C617.39,357.29,618,361,613.6,361.09Zm16.52-121.25c3,.18,4.33,2.16,4.08,5.69-.21,2.92.44,6.22-3.59,6a4.38,4.38,0,0,1-3.6-1.65,4.23,4.23,0,0,1-.62-1.9c-.11-1,.06-2,0-2.95-.06-1.39-.25-3,.65-4.07A3.57,3.57,0,0,1,630.12,239.84Zm4.23,116.71c-.14,3,.28,6.28-3.69,5.88-3.06-.3-4.47-2.18-4.17-5.72.29-2.84-.07-6.16,3.92-5.84C633.75,351.14,634.51,353.17,634.35,356.55Zm45.08-105.9c4,.82,5.3,3.19,4.92,7.74-.25,2.94-.57,4.65-3.53,4.17-4.06-.65-4.61-3.57-4.17-7.25C676.83,253.13,675.64,249.88,679.43,250.65ZM646,242.39c3.29.56,4.48,2.62,4.2,6.24-.23,3-.12,6.08-4.1,5.27-2.84-.57-4.15-2.16-4-4.43C642.67,245.77,641.4,241.61,646,242.39Zm4.54,116.69c-.28,2.84.53,6.34-3.51,5.86-3.36-.39-5.08-2.29-4.39-5.8.09-3.28-.35-6.43,3.49-5.89C649.22,353.68,650.92,355.12,650.53,359.08Zm12.25-112.91c4.53.66,4.35,3.78,4.33,7.48,0,3-.57,4.55-3.55,4.07-3.58-.58-4.89-2.63-4.11-6.73C659.16,248.29,658.83,245.59,662.78,246.17ZM664,368.72c-2.93-.66-5-2.42-4.57-6.15.28-2.65-.41-6.34,3.8-5.62,3.93.68,4.26,3.45,3.84,7C667.07,366.34,667.8,369.59,664,368.72Zm16.88,4.48c-3.57-.57-5-2.56-4.21-6.52,0-2.69-.74-5.84,3.37-5.1,4.83.88,4.29,4.42,4.38,8.18C684.5,372.93,683.42,373.6,680.89,373.2Zm15.82-116.92c5.23.88,4.23,4.87,4.49,8.58.21,3-1,3.59-3.29,3.3-4-.53-4.7-3.44-4.33-7.91C693.46,258.37,692.85,255.62,696.71,256.28Zm1.47,122.63c-3.27-.72-5.14-2.68-4.35-6.76.41-2.15-1.17-5.87,2.91-5.21s5,2.54,4.94,8.84C701.67,378.8,700.35,379.39,698.18,378.91Zm15.16-116.67c2.15.44,4.23,1.6,4.65,4a11.67,11.67,0,0,1,.07,2.36c-.06,1.42.24,3.6-.32,4.83s-1.71,1-2.81.9c-3.68-.75-4.66-2.71-4.66-9.19C710.27,262.43,711.23,261.8,713.34,262.24Zm5.21,119.92c-.09,2.91-1.56,2.9-3.43,2.55-3.82-.7-5-3.27-4.15-7,.21-5.15.24-5.19,3.11-4.62C718,373.81,718.74,375.5,718.55,382.16Zm12.07-113.49c4.84.85,4.8,4.37,4.8,8.41,0,2.62-.53,4.12-3,3.67a6,6,0,0,1-4-2.35,7,7,0,0,1-.77-4.53c.12-1.37-.54-3.3.1-4.48C728.25,268.41,729.58,268.49,730.62,268.67Zm2,122.7c-4-.52-5.15-3.52-5-7.5.11-2.22-.91-5.46,2.82-4.7a6,6,0,0,1,4.39,2.74,5.82,5.82,0,0,1,.57,2.78C735.44,387.29,736.52,391.87,732.67,391.37Zm14.66-116.21c3,.6,4.72,2.59,4.63,5.62-.05,1.46,0,2.93,0,4.39,0,1.19-.47,2.18-1.73,2.36a5.35,5.35,0,0,1-4.58-2.29c-1.34-2.07-1.36-4.83-1.38-7.07C744.21,275.56,745.1,274.72,747.33,275.16Zm2,122.4a4.8,4.8,0,0,1-4.09-2.8c-.84-2.16-.39-4.84-.35-7,0-1.82,1-2.6,2.88-2.38,3.44.42,4.88,3.27,5,9.08C752.82,397.46,751.6,397.87,749.38,397.56Zm14.13-116.13c2.29.05,4.42.77,5.25,3.68a18.6,18.6,0,0,1,.39,4.43c.05,1.69.91,4-1.52,4.21-2.21.2-4.44-.21-5.47-3.11a29.41,29.41,0,0,1-.91-4.5C761.74,284.05,760.79,281.37,763.51,281.43ZM769.05,403a2,2,0,0,1-1,.89,4.24,4.24,0,0,1-3.5-.12,5.72,5.72,0,0,1-2.15-2.34c-1.08-2-1.21-5.15-1-7.28.23-2.89,4.16-3.17,5.81-1.35a9.92,9.92,0,0,1,2.45,7.72A6.89,6.89,0,0,1,769.05,403Zm16.66,1.79c.14,2.37-.18,5.53-3,5.53-5.18,0-5.32-5.27-4.94-9.11.27-2.77,1.06-3.24,3.15-3,1.54.16,3.37.62,4.08,2.15a13.67,13.67,0,0,1,.69,4.22C785.7,404.61,785.71,404.68,785.71,404.76ZM785.07,299c-1,2.11-3.66.91-5.43-.33-2.11-1.48-1.78-4-1.84-6.39.27-1.4-.74-3.72.79-4.32,2-.77,4.45-.73,5.85,1.69A10.51,10.51,0,0,1,785.07,299Zm9.82-.93c.48-1.76-1-5.15,2.59-4.54,3.15.53,5.78,1.71,5.16,6.27-.32,2.41,1.07,6.15-3.15,5.77S794.74,302,794.89,298.09Zm4.79,117.64c-4-.35-4.54-3.39-4.56-6.51.28-2.64-1-5.79,2.71-5.62s4.81,2.24,5.09,8.09C803.06,414.63,802.45,416,799.68,415.73Zm15.31-117c3.88.31,4.65,3.25,4.31,6.92-.19,2.08,1.16,5.53-2.7,5-3.17-.47-5.63-1.78-4.88-6.47C811.52,301.4,811.17,298.37,815,298.68Zm5,119.18c-.14,2.31-1.13,3.3-3,3-3.4-.6-5.82-2.23-4.59-7.05,0-2.32-1-5.47,3.05-4.82C819.12,409.53,820.38,411.83,820,417.86Zm16.67,2.87c0,2.23.14,4.54-2.72,4.3-3.5-.3-5.72-2-4.92-7-.31-2.37-.49-5,3.11-4.87C836.71,413.34,836.79,416.88,836.7,420.73Zm0-111.57c-.32,2.71.7,5.86-3.37,5.7s-4.52-3.15-4.32-6.77c.08-2.32-1-5.47,2.77-5.09C835,303.33,837.19,304.56,836.66,309.16Zm9.39,2.89c.21-2.59-.94-5.94,3.28-5.79,5.08.15,4.06,4.52,4.37,8.08.26,3-1.3,3.72-3.46,3.69C846.76,318,845.48,315.84,846.05,312.05Zm5.07,116.21c-4,.33-5.22-2.29-4.9-6.5-.15-2.34-.81-4.91,2.7-5.24,3.88-.38,5.19,1.89,5,5.77C853.77,424.58,855,427.93,851.12,428.26Zm14.77-119.65c3.89-.45,5.08,1.56,4.52,5.73-.28,2.08,1.29,5.3-2.37,5.59-2.58.21-5.72,0-5.15-4.16C863.22,313.38,860.93,309.16,865.89,308.61ZM867.46,430c-2.86,0-5-1-4.32-6.1.44-1.58-1.13-5.27,3.3-5.62s4.44,3,4.46,6.63C870.92,427.72,870.55,430.06,867.46,430Zm15.72-120.88c3.3-.27,5,1.12,4.55,5.24-.29,2.73.32,5.81-3.6,6.14-3.69.29-4.6-1.9-4-6C880,312.2,879.5,309.44,883.18,309.16Zm4.65,114.65c-.3,2.89.88,6.11-3,6.57-3.37.38-5.36-1-5-5.41.27-3,.28-5.76,3.92-6C887.24,418.69,888.28,420.64,887.83,423.81Zm9.24-110.12c.13-1.9-.64-5.09,3.43-5.49,3.12-.32,4.78.6,4.26,4.75s-.17,6.16-4.14,6.55C897.39,319.8,896.46,317.94,897.07,313.69Zm8,108.75c-.19,2.94.27,6.24-3.78,6.77a4.39,4.39,0,0,1-3.14-.5c-1.54-1.11-.89-3.58-.92-5.41a6.86,6.86,0,0,1,.57-3.42,4.37,4.37,0,0,1,3.33-2.11C904.32,417.29,905.26,419.08,905.05,422.44Z"/><path d="M911.88,433.16c.09-.28.17-.57.27-.86,0,0,0,0,0,0a41.58,41.58,0,0,0,.14-4.31q.16-60,.34-120.07c0-4.68-.48-6.78-2.95-8.05h0q-.16,67.65-.32,135.29h.25l.27,0,.32-.11s0,0,.06-.05a5,5,0,0,0,.94-.5s0,0,0,0c.23-.38.46-.75.67-1.13A.08.08,0,0,1,911.88,433.16Z"/></g><path id="frame3" class="cls-7" d="M901.42,367.91c0-6.5,0-13,0-19.55,0-5.46,0-10.94.1-16.42.05-4-1.39-4.91-4.48-4.56-27.16,3-53.76-1.87-80.27-9.34-8.89-2.5-17.75-5.4-26.59-8.55-2.46-.87-3.34,0-3.29,2.77,0,.45,0,.9,0,1.35-.11,23.94-.19,47.89-.37,71.82,0,4,1,6.27,4.64,7.54,27.11,9.37,54.33,16.44,81.92,17.93,8,.43,16.21-.4,24.29-.89,3.16-.19,4.07-1.85,4.05-5.26-.05-7.92-.05-15.85,0-23.77q0-3.33,0-6.66v-6.41Z"/><path id="frame2" class="cls-7" d="M648.69,305.4c0,12.3.08,24.6-.06,36.89,0,3.37.73,4.71,3.8,5.34,36.19,7.38,71.58,21.69,106.75,35.5,2.93,1.15,4.47,1.1,4.44-3.31q-.23-36.92,0-73.79c0-3.71-1.35-5.11-4-6.14-25.28-9.64-50.6-20-76.28-27.92-10.09-3.11-20.28-5.47-30.43-8-2.84-.7-4.27.33-4.23,4C648.76,280.51,648.69,293,648.69,305.4Z"/><path id="frame1" class="cls-7" d="M506.06,372.66c0,2,1.94,2.91,3.66,1.69a175.62,175.62,0,0,1,31.86-18.42c24.13-10.49,48.72-13.68,73.64-12,5.69.4,5.69.33,5.69-6.42,0-23.71-.07-47.43.08-71.13,0-4.32-1.29-5.94-4.87-6.21-36.67-2.75-72.22,5.22-106.15,30-3,2.15-4,4.05-4,7.81.15,24.87.07,49.8.07,74.71Z"/></g></svg>